# xmcd CD database file
#
# Track frame offsets:
#	150
#	14368
#	27650
#	41013
#	55621
#	67401
#	81912
#	97115
#	110815
#	126232
#	141513
#	151843
#	166163
#	179835
#	195513
#	213903
#	230566
#	246127
#	261438
#	275878
#	288594
#	298141
#	309312
#
# Disc length: 4352 seconds
#
# Revision: 0
# Processed by: cddbd v1.5.2PL0 Copyright (c) Steve Scherf et al.
# Submitted via: CDex 1.51
#
DISCID=7210fe17
DTITLE=Karel Vlach-Ruzni - Karel Vlach-Portrety
DYEAR=2000
DGENRE=Jazz
TTITLE0=Stardust
TTITLE1=Byla jedna holcicka
TTITLE2=Svetla promenad
TTITLE3=I Didn't Know About You
TTITLE4=That's an Irish Lullaby
TTITLE5=Tvuj krok zni
TTITLE6=Laura
TTITLE7=Embraceable You
TTITLE8=Tak ja nevim
TTITLE9=Bud sbohem
TTITLE10=Colonel Bogey March
TTITLE11=Na pocatku bylo blues
TTITLE12=Rad te mam
TTITLE13=Trpaslici
TTITLE14=Ulice kde bydlis ty
TTITLE15=Vsechny hvezdy na nebi
TTITLE16=Romanticka
TTITLE17=Pisen o case
TTITLE18=Dame si do bytu
TTITLE19=Santa Anna Maria
TTITLE20=Chtel bych mit kapelu
TTITLE21=Babicko nauc me Charleston
TTITLE22=O nas dvou
EXTD=YEAR: 2000
EXTT0=
EXTT1=
EXTT2=
EXTT3=
EXTT4=
EXTT5=
EXTT6=
EXTT7=
EXTT8=
EXTT9=
EXTT10=
EXTT11=
EXTT12=
EXTT13=
EXTT14=
EXTT15=
EXTT16=
EXTT17=
EXTT18=
EXTT19=
EXTT20=
EXTT21=
EXTT22=
PLAYORDER=
